<svg xmlns="http://www.w3.org/2000/svg" xmlns:xlink="http://www.w3.org/1999/xlink" width="210" zoomAndPan="magnify" viewBox="0 0 157.5 30.000001" height="40" preserveAspectRatio="xMidYMid meet" version="1.0"><defs><g/><clipPath id="0db0e53989"><path d="M 19.105469 0 L 48.140625 0 L 48.140625 29.03125 L 19.105469 29.03125 Z M 19.105469 0 " clip-rule="nonzero"/></clipPath><clipPath id="3008460b32"><path d="M 27.089844 0 L 40.15625 0 C 44.566406 0 48.140625 3.574219 48.140625 7.984375 L 48.140625 21.046875 C 48.140625 25.457031 44.566406 29.03125 40.15625 29.03125 L 27.089844 29.03125 C 22.679688 29.03125 19.105469 25.457031 19.105469 21.046875 L 19.105469 7.984375 C 19.105469 3.574219 22.679688 0 27.089844 0 Z M 27.089844 0 " clip-rule="nonzero"/></clipPath><clipPath id="1b3e14c85c"><path d="M 0.105469 0 L 29.140625 0 L 29.140625 29.03125 L 0.105469 29.03125 Z M 0.105469 0 " clip-rule="nonzero"/></clipPath><clipPath id="e0ffacbffd"><path d="M 8.089844 0 L 21.15625 0 C 25.566406 0 29.140625 3.574219 29.140625 7.984375 L 29.140625 21.046875 C 29.140625 25.457031 25.566406 29.03125 21.15625 29.03125 L 8.089844 29.03125 C 3.679688 29.03125 0.105469 25.457031 0.105469 21.046875 L 0.105469 7.984375 C 0.105469 3.574219 3.679688 0 8.089844 0 Z M 8.089844 0 " clip-rule="nonzero"/></clipPath><clipPath id="31dfb5aa7d"><rect x="0" width="30" y="0" height="30"/></clipPath><clipPath id="86affda66e"><path d="M 21.996094 5.8125 L 28 5.8125 L 28 23.230469 L 21.996094 23.230469 Z M 21.996094 5.8125 " clip-rule="nonzero"/></clipPath><clipPath id="8c1d5bb4c8"><path d="M 40 5.8125 L 45.589844 5.8125 L 45.589844 23.230469 L 40 23.230469 Z M 40 5.8125 " clip-rule="nonzero"/></clipPath><clipPath id="4c643e90c3"><path d="M 11 4 L 22 4 L 22 17.457031 L 11 17.457031 Z M 11 4 " clip-rule="nonzero"/></clipPath><clipPath id="d507078ffc"><path d="M 73 4 L 83.453125 4 L 83.453125 15 L 73 15 Z M 73 4 " clip-rule="nonzero"/></clipPath><clipPath id="922ff7a4ba"><rect x="0" width="84" y="0" height="18"/></clipPath><clipPath id="7229364a20"><path d="M 0.167969 4 L 7 4 L 7 18 L 0.167969 18 Z M 0.167969 4 " clip-rule="nonzero"/></clipPath><clipPath id="30dfdf0828"><rect x="0" width="8" y="0" height="22"/></clipPath></defs><g clip-path="url(#0db0e53989)"><g clip-path="url(#3008460b32)"><g transform="matrix(1, 0, 0, 1, 19, 0.000000000000005692)"><g clip-path="url(#31dfb5aa7d)"><g clip-path="url(#1b3e14c85c)"><g clip-path="url(#e0ffacbffd)"><path fill="#1649ff" d="M 0.105469 0 L 29.140625 0 L 29.140625 29.03125 L 0.105469 29.03125 Z M 0.105469 0 " fill-opacity="1" fill-rule="nonzero"/></g></g></g></g></g></g><g clip-path="url(#86affda66e)"><path fill="#efefef" d="M 26.832031 7.746094 L 27.3125 7.746094 L 27.3125 5.8125 L 26.832031 5.8125 C 25.226562 5.8125 23.929688 7.109375 23.929688 8.714844 L 23.929688 12.097656 C 23.929688 12.402344 23.785156 12.6875 23.542969 12.871094 L 22.382812 13.742188 C 22.148438 13.917969 22.007812 14.183594 21.996094 14.476562 C 21.984375 14.765625 22.101562 15.046875 22.320312 15.238281 L 23.605469 16.378906 C 23.8125 16.5625 23.929688 16.828125 23.929688 17.101562 L 23.929688 20.316406 C 23.929688 21.921875 25.226562 23.21875 26.832031 23.21875 L 27.3125 23.21875 L 27.3125 21.285156 L 26.832031 21.285156 C 26.296875 21.285156 25.863281 20.851562 25.863281 20.316406 L 25.863281 17.101562 C 25.863281 16.273438 25.507812 15.484375 24.890625 14.933594 L 24.488281 14.578125 L 24.703125 14.417969 C 25.433594 13.871094 25.863281 13.011719 25.863281 12.097656 L 25.863281 8.714844 C 25.863281 8.179688 26.296875 7.746094 26.832031 7.746094 Z M 26.832031 7.746094 " fill-opacity="1" fill-rule="evenodd"/></g><g clip-path="url(#8c1d5bb4c8)"><path fill="#efefef" d="M 40.503906 7.746094 L 40.019531 7.746094 L 40.019531 5.8125 L 40.503906 5.8125 C 42.105469 5.8125 43.40625 7.109375 43.40625 8.714844 L 43.40625 12.097656 C 43.40625 12.402344 43.550781 12.6875 43.792969 12.871094 L 44.953125 13.742188 C 45.1875 13.917969 45.328125 14.183594 45.339844 14.476562 C 45.351562 14.765625 45.234375 15.046875 45.015625 15.238281 L 43.730469 16.378906 C 43.523438 16.5625 43.40625 16.828125 43.40625 17.101562 L 43.40625 20.316406 C 43.40625 21.921875 42.105469 23.21875 40.503906 23.21875 L 40.019531 23.21875 L 40.019531 21.285156 L 40.503906 21.285156 C 41.039062 21.285156 41.472656 20.851562 41.472656 20.316406 L 41.472656 17.101562 C 41.472656 16.273438 41.828125 15.484375 42.445312 14.933594 L 42.847656 14.578125 L 42.632812 14.417969 C 41.902344 13.871094 41.472656 13.011719 41.472656 12.097656 L 41.472656 8.714844 C 41.472656 8.179688 41.039062 7.746094 40.503906 7.746094 Z M 40.503906 7.746094 " fill-opacity="1" fill-rule="evenodd"/></g><g transform="matrix(1, 0, 0, 1, 51, 6)"><g clip-path="url(#922ff7a4ba)"><g fill="#292929" fill-opacity="1"><g transform="translate(0.109786, 14.115973)"><g><path d="M 3.828125 0 L 1.5 0 L 1.5 -12.640625 L 6.828125 -12.640625 C 7.472656 -12.640625 8.0625 -12.535156 8.59375 -12.328125 C 9.132812 -12.117188 9.597656 -11.820312 9.984375 -11.4375 C 10.378906 -11.0625 10.679688 -10.613281 10.890625 -10.09375 C 11.109375 -9.570312 11.21875 -9.003906 11.21875 -8.390625 C 11.21875 -7.734375 11.109375 -7.140625 10.890625 -6.609375 C 10.679688 -6.078125 10.382812 -5.617188 10 -5.234375 C 9.613281 -4.847656 9.15625 -4.550781 8.625 -4.34375 C 8.09375 -4.132812 7.507812 -4.03125 6.875 -4.03125 L 3.828125 -4.03125 Z M 3.828125 -10.578125 L 3.828125 -6.09375 L 6.765625 -6.09375 C 7.160156 -6.09375 7.519531 -6.191406 7.84375 -6.390625 C 8.175781 -6.597656 8.4375 -6.875 8.625 -7.21875 C 8.8125 -7.5625 8.90625 -7.953125 8.90625 -8.390625 C 8.90625 -8.773438 8.804688 -9.132812 8.609375 -9.46875 C 8.421875 -9.800781 8.164062 -10.066406 7.84375 -10.265625 C 7.519531 -10.472656 7.15625 -10.578125 6.75 -10.578125 Z M 3.828125 -10.578125 "/></g></g></g><g clip-path="url(#4c643e90c3)"><g fill="#292929" fill-opacity="1"><g transform="translate(11.315736, 14.115973)"><g><path d="M 2.0625 3.265625 L 0.453125 3.265625 L 0.453125 1.40625 L 2.046875 1.40625 C 2.378906 1.40625 2.648438 1.347656 2.859375 1.234375 C 3.078125 1.128906 3.257812 0.960938 3.40625 0.734375 C 3.5625 0.515625 3.703125 0.226562 3.828125 -0.125 L 3.9375 -0.453125 L 0.28125 -9.5625 L 2.65625 -9.5625 L 4.90625 -3.78125 L 5.140625 -2.796875 L 5.390625 -3.765625 L 7.609375 -9.546875 L 10 -9.5625 L 6.28125 -0.21875 C 6 0.5 5.71875 1.082031 5.4375 1.53125 C 5.15625 1.988281 4.851562 2.34375 4.53125 2.59375 C 4.21875 2.84375 3.859375 3.015625 3.453125 3.109375 C 3.054688 3.210938 2.59375 3.265625 2.0625 3.265625 Z M 2.0625 3.265625 "/></g></g></g></g><g fill="#292929" fill-opacity="1"><g transform="translate(21.099128, 14.115973)"><g><path d="M 13.03125 -9.84375 C 14.238281 -9.84375 15.140625 -9.4375 15.734375 -8.625 C 16.328125 -7.8125 16.625 -6.65625 16.625 -5.15625 L 16.625 0 L 14.40625 0 L 14.40625 -5.109375 C 14.40625 -6.046875 14.222656 -6.722656 13.859375 -7.140625 C 13.492188 -7.566406 13.003906 -7.78125 12.390625 -7.78125 C 11.992188 -7.78125 11.617188 -7.65625 11.265625 -7.40625 C 10.910156 -7.164062 10.625 -6.828125 10.40625 -6.390625 C 10.1875 -5.960938 10.078125 -5.457031 10.078125 -4.875 L 10.078125 0 L 7.859375 0 L 7.859375 -5.109375 C 7.859375 -6.046875 7.675781 -6.722656 7.3125 -7.140625 C 6.945312 -7.566406 6.457031 -7.78125 5.84375 -7.78125 C 5.445312 -7.78125 5.070312 -7.65625 4.71875 -7.40625 C 4.363281 -7.164062 4.078125 -6.828125 3.859375 -6.390625 C 3.648438 -5.960938 3.546875 -5.457031 3.546875 -4.875 L 3.546875 0 L 1.328125 0 L 1.328125 -9.5625 L 3.421875 -9.5625 L 3.453125 -8.078125 C 3.617188 -8.410156 3.847656 -8.710938 4.140625 -8.984375 C 4.441406 -9.253906 4.789062 -9.460938 5.1875 -9.609375 C 5.59375 -9.765625 6.03125 -9.84375 6.5 -9.84375 C 7.300781 -9.84375 7.96875 -9.660156 8.5 -9.296875 C 9.03125 -8.929688 9.425781 -8.394531 9.6875 -7.6875 C 10.09375 -8.425781 10.582031 -8.96875 11.15625 -9.3125 C 11.726562 -9.664062 12.351562 -9.84375 13.03125 -9.84375 Z M 13.03125 -9.84375 "/></g></g></g><g fill="#292929" fill-opacity="1"><g transform="translate(38.664751, 14.115973)"><g><path d="M 10.421875 -4.953125 C 10.421875 -4.828125 10.414062 -4.710938 10.40625 -4.609375 C 10.394531 -4.503906 10.382812 -4.363281 10.375 -4.1875 L 2.90625 -4.1875 C 2.976562 -3.664062 3.140625 -3.222656 3.390625 -2.859375 C 3.648438 -2.492188 3.960938 -2.210938 4.328125 -2.015625 C 4.703125 -1.816406 5.109375 -1.71875 5.546875 -1.71875 C 6.117188 -1.71875 6.582031 -1.832031 6.9375 -2.0625 C 7.289062 -2.289062 7.546875 -2.601562 7.703125 -3 L 10.171875 -3 C 10.046875 -2.570312 9.847656 -2.160156 9.578125 -1.765625 C 9.304688 -1.367188 8.972656 -1.015625 8.578125 -0.703125 C 8.191406 -0.398438 7.742188 -0.160156 7.234375 0.015625 C 6.734375 0.191406 6.1875 0.28125 5.59375 0.28125 C 4.875 0.28125 4.210938 0.148438 3.609375 -0.109375 C 3.003906 -0.367188 2.476562 -0.726562 2.03125 -1.1875 C 1.59375 -1.65625 1.25 -2.195312 1 -2.8125 C 0.757812 -3.425781 0.640625 -4.082031 0.640625 -4.78125 C 0.640625 -5.476562 0.757812 -6.128906 1 -6.734375 C 1.25 -7.347656 1.59375 -7.890625 2.03125 -8.359375 C 2.476562 -8.828125 3.003906 -9.191406 3.609375 -9.453125 C 4.210938 -9.710938 4.875 -9.84375 5.59375 -9.84375 C 6.3125 -9.84375 6.96875 -9.710938 7.5625 -9.453125 C 8.15625 -9.191406 8.664062 -8.832031 9.09375 -8.375 C 9.519531 -7.925781 9.847656 -7.40625 10.078125 -6.8125 C 10.304688 -6.226562 10.421875 -5.609375 10.421875 -4.953125 Z M 3 -5.921875 L 8.125 -5.921875 C 8.09375 -6.285156 7.957031 -6.613281 7.71875 -6.90625 C 7.476562 -7.195312 7.171875 -7.429688 6.796875 -7.609375 C 6.429688 -7.796875 6.03125 -7.890625 5.59375 -7.890625 C 5.207031 -7.890625 4.84375 -7.816406 4.5 -7.671875 C 4.15625 -7.535156 3.847656 -7.320312 3.578125 -7.03125 C 3.316406 -6.75 3.125 -6.378906 3 -5.921875 Z M 3 -5.921875 "/></g></g></g><g fill="#292929" fill-opacity="1"><g transform="translate(49.28494, 14.115973)"><g><path d="M 6.40625 0 L 1.5 0 L 1.5 -12.640625 L 6.375 -12.640625 C 7.382812 -12.640625 8.300781 -12.488281 9.125 -12.1875 C 9.957031 -11.894531 10.664062 -11.46875 11.25 -10.90625 C 11.84375 -10.351562 12.300781 -9.6875 12.625 -8.90625 C 12.945312 -8.132812 13.109375 -7.273438 13.109375 -6.328125 C 13.109375 -5.378906 12.945312 -4.515625 12.625 -3.734375 C 12.300781 -2.960938 11.84375 -2.296875 11.25 -1.734375 C 10.664062 -1.179688 9.960938 -0.753906 9.140625 -0.453125 C 8.328125 -0.148438 7.414062 0 6.40625 0 Z M 3.78125 -10.59375 L 3.78125 -2.0625 L 6.328125 -2.0625 C 7.253906 -2.0625 8.046875 -2.234375 8.703125 -2.578125 C 9.367188 -2.921875 9.878906 -3.410156 10.234375 -4.046875 C 10.585938 -4.679688 10.765625 -5.429688 10.765625 -6.296875 C 10.765625 -7.160156 10.59375 -7.914062 10.25 -8.5625 C 9.90625 -9.207031 9.398438 -9.707031 8.734375 -10.0625 C 8.066406 -10.414062 7.257812 -10.59375 6.3125 -10.59375 Z M 3.78125 -10.59375 "/></g></g></g><g fill="#292929" fill-opacity="1"><g transform="translate(62.703756, 14.115973)"><g><path d="M 10.421875 -4.953125 C 10.421875 -4.828125 10.414062 -4.710938 10.40625 -4.609375 C 10.394531 -4.503906 10.382812 -4.363281 10.375 -4.1875 L 2.90625 -4.1875 C 2.976562 -3.664062 3.140625 -3.222656 3.390625 -2.859375 C 3.648438 -2.492188 3.960938 -2.210938 4.328125 -2.015625 C 4.703125 -1.816406 5.109375 -1.71875 5.546875 -1.71875 C 6.117188 -1.71875 6.582031 -1.832031 6.9375 -2.0625 C 7.289062 -2.289062 7.546875 -2.601562 7.703125 -3 L 10.171875 -3 C 10.046875 -2.570312 9.847656 -2.160156 9.578125 -1.765625 C 9.304688 -1.367188 8.972656 -1.015625 8.578125 -0.703125 C 8.191406 -0.398438 7.742188 -0.160156 7.234375 0.015625 C 6.734375 0.191406 6.1875 0.28125 5.59375 0.28125 C 4.875 0.28125 4.210938 0.148438 3.609375 -0.109375 C 3.003906 -0.367188 2.476562 -0.726562 2.03125 -1.1875 C 1.59375 -1.65625 1.25 -2.195312 1 -2.8125 C 0.757812 -3.425781 0.640625 -4.082031 0.640625 -4.78125 C 0.640625 -5.476562 0.757812 -6.128906 1 -6.734375 C 1.25 -7.347656 1.59375 -7.890625 2.03125 -8.359375 C 2.476562 -8.828125 3.003906 -9.191406 3.609375 -9.453125 C 4.210938 -9.710938 4.875 -9.84375 5.59375 -9.84375 C 6.3125 -9.84375 6.96875 -9.710938 7.5625 -9.453125 C 8.15625 -9.191406 8.664062 -8.832031 9.09375 -8.375 C 9.519531 -7.925781 9.847656 -7.40625 10.078125 -6.8125 C 10.304688 -6.226562 10.421875 -5.609375 10.421875 -4.953125 Z M 3 -5.921875 L 8.125 -5.921875 C 8.09375 -6.285156 7.957031 -6.613281 7.71875 -6.90625 C 7.476562 -7.195312 7.171875 -7.429688 6.796875 -7.609375 C 6.429688 -7.796875 6.03125 -7.890625 5.59375 -7.890625 C 5.207031 -7.890625 4.84375 -7.816406 4.5 -7.671875 C 4.15625 -7.535156 3.847656 -7.320312 3.578125 -7.03125 C 3.316406 -6.75 3.125 -6.378906 3 -5.921875 Z M 3 -5.921875 "/></g></g></g><g clip-path="url(#d507078ffc)"><g fill="#292929" fill-opacity="1"><g transform="translate(73.32395, 14.115973)"><g><path d="M 6 0 L 3.90625 0 L 0.09375 -9.5625 L 2.484375 -9.5625 L 4.703125 -3.78125 L 4.953125 -2.78125 L 5.203125 -3.78125 L 7.421875 -9.5625 L 9.828125 -9.5625 Z M 6 0 "/></g></g></g></g></g></g><g transform="matrix(1, 0, 0, 1, 30, 3)"><g clip-path="url(#30dfdf0828)"><g clip-path="url(#7229364a20)"><g fill="#ffffff" fill-opacity="1"><g transform="translate(0.999992, 17.3682)"><g><path d="M 5.96875 -12.65625 L 1.296875 0 L -0.3125 0 L 4.34375 -12.65625 Z M 5.96875 -12.65625 "/></g></g></g></g></g></g></svg>