<svg xmlns="http://www.w3.org/2000/svg" xmlns:xlink="http://www.w3.org/1999/xlink" width="210" zoomAndPan="magnify" viewBox="0 0 157.5 30.000001" height="40" preserveAspectRatio="xMidYMid meet" version="1.0"><defs><g/><clipPath id="7e9f465ee1"><path d="M 19.105469 0 L 48.140625 0 L 48.140625 29.03125 L 19.105469 29.03125 Z M 19.105469 0 " clip-rule="nonzero"/></clipPath><clipPath id="2a487ec595"><path d="M 27.089844 0 L 40.15625 0 C 44.566406 0 48.140625 3.574219 48.140625 7.984375 L 48.140625 21.046875 C 48.140625 25.457031 44.566406 29.03125 40.15625 29.03125 L 27.089844 29.03125 C 22.679688 29.03125 19.105469 25.457031 19.105469 21.046875 L 19.105469 7.984375 C 19.105469 3.574219 22.679688 0 27.089844 0 Z M 27.089844 0 " clip-rule="nonzero"/></clipPath><clipPath id="8c9e027043"><path d="M 0.105469 0 L 29.140625 0 L 29.140625 29.03125 L 0.105469 29.03125 Z M 0.105469 0 " clip-rule="nonzero"/></clipPath><clipPath id="8c511dd7b1"><path d="M 8.089844 0 L 21.15625 0 C 25.566406 0 29.140625 3.574219 29.140625 7.984375 L 29.140625 21.046875 C 29.140625 25.457031 25.566406 29.03125 21.15625 29.03125 L 8.089844 29.03125 C 3.679688 29.03125 0.105469 25.457031 0.105469 21.046875 L 0.105469 7.984375 C 0.105469 3.574219 3.679688 0 8.089844 0 Z M 8.089844 0 " clip-rule="nonzero"/></clipPath><clipPath id="b153ee506f"><rect x="0" width="30" y="0" height="30"/></clipPath><clipPath id="fe530468c9"><path d="M 21.996094 5.8125 L 28 5.8125 L 28 23.230469 L 21.996094 23.230469 Z M 21.996094 5.8125 " clip-rule="nonzero"/></clipPath><clipPath id="2be9c0989b"><path d="M 40 5.8125 L 45.589844 5.8125 L 45.589844 23.230469 L 40 23.230469 Z M 40 5.8125 " clip-rule="nonzero"/></clipPath><clipPath id="6d1bafce91"><path d="M 0.167969 4 L 7 4 L 7 18 L 0.167969 18 Z M 0.167969 4 " clip-rule="nonzero"/></clipPath><clipPath id="39ce4e3208"><rect x="0" width="8" y="0" height="22"/></clipPath></defs><g clip-path="url(#7e9f465ee1)"><g clip-path="url(#2a487ec595)"><g transform="matrix(1, 0, 0, 1, 19, 0.000000000000005692)"><g clip-path="url(#b153ee506f)"><g clip-path="url(#8c9e027043)"><g clip-path="url(#8c511dd7b1)"><path fill="#1649ff" d="M 0.105469 0 L 29.140625 0 L 29.140625 29.03125 L 0.105469 29.03125 Z M 0.105469 0 " fill-opacity="1" fill-rule="nonzero"/></g></g></g></g></g></g><g clip-path="url(#fe530468c9)"><path fill="#efefef" d="M 26.832031 7.746094 L 27.3125 7.746094 L 27.3125 5.8125 L 26.832031 5.8125 C 25.226562 5.8125 23.929688 7.109375 23.929688 8.714844 L 23.929688 12.097656 C 23.929688 12.402344 23.785156 12.6875 23.542969 12.871094 L 22.382812 13.742188 C 22.148438 13.917969 22.007812 14.183594 21.996094 14.476562 C 21.984375 14.765625 22.101562 15.046875 22.320312 15.238281 L 23.605469 16.378906 C 23.8125 16.5625 23.929688 16.828125 23.929688 17.101562 L 23.929688 20.316406 C 23.929688 21.921875 25.226562 23.21875 26.832031 23.21875 L 27.3125 23.21875 L 27.3125 21.285156 L 26.832031 21.285156 C 26.296875 21.285156 25.863281 20.851562 25.863281 20.316406 L 25.863281 17.101562 C 25.863281 16.273438 25.507812 15.484375 24.890625 14.933594 L 24.488281 14.578125 L 24.703125 14.417969 C 25.433594 13.871094 25.863281 13.011719 25.863281 12.097656 L 25.863281 8.714844 C 25.863281 8.179688 26.296875 7.746094 26.832031 7.746094 Z M 26.832031 7.746094 " fill-opacity="1" fill-rule="evenodd"/></g><g clip-path="url(#2be9c0989b)"><path fill="#efefef" d="M 40.503906 7.746094 L 40.019531 7.746094 L 40.019531 5.8125 L 40.503906 5.8125 C 42.105469 5.8125 43.40625 7.109375 43.40625 8.714844 L 43.40625 12.097656 C 43.40625 12.402344 43.550781 12.6875 43.792969 12.871094 L 44.953125 13.742188 C 45.1875 13.917969 45.328125 14.183594 45.339844 14.476562 C 45.351562 14.765625 45.234375 15.046875 45.015625 15.238281 L 43.730469 16.378906 C 43.523438 16.5625 43.40625 16.828125 43.40625 17.101562 L 43.40625 20.316406 C 43.40625 21.921875 42.105469 23.21875 40.503906 23.21875 L 40.019531 23.21875 L 40.019531 21.285156 L 40.503906 21.285156 C 41.039062 21.285156 41.472656 20.851562 41.472656 20.316406 L 41.472656 17.101562 C 41.472656 16.273438 41.828125 15.484375 42.445312 14.933594 L 42.847656 14.578125 L 42.632812 14.417969 C 41.902344 13.871094 41.472656 13.011719 41.472656 12.097656 L 41.472656 8.714844 C 41.472656 8.179688 41.039062 7.746094 40.503906 7.746094 Z M 40.503906 7.746094 " fill-opacity="1" fill-rule="evenodd"/></g><g fill="#ffffff" fill-opacity="1"><g transform="translate(51.109785, 19.393357)"><g><path d="M 3.8125 0 L 1.5 0 L 1.5 -12.640625 L 6.828125 -12.640625 C 7.460938 -12.640625 8.046875 -12.53125 8.578125 -12.3125 C 9.117188 -12.101562 9.582031 -11.804688 9.96875 -11.421875 C 10.363281 -11.046875 10.671875 -10.597656 10.890625 -10.078125 C 11.109375 -9.554688 11.21875 -8.988281 11.21875 -8.375 C 11.21875 -7.726562 11.109375 -7.140625 10.890625 -6.609375 C 10.679688 -6.078125 10.378906 -5.617188 9.984375 -5.234375 C 9.597656 -4.847656 9.140625 -4.550781 8.609375 -4.34375 C 8.078125 -4.132812 7.5 -4.03125 6.875 -4.03125 L 3.8125 -4.03125 Z M 3.8125 -10.578125 L 3.8125 -6.09375 L 6.75 -6.09375 C 7.15625 -6.09375 7.519531 -6.191406 7.84375 -6.390625 C 8.164062 -6.597656 8.421875 -6.875 8.609375 -7.21875 C 8.804688 -7.5625 8.90625 -7.945312 8.90625 -8.375 C 8.90625 -8.757812 8.804688 -9.117188 8.609375 -9.453125 C 8.421875 -9.796875 8.160156 -10.066406 7.828125 -10.265625 C 7.503906 -10.472656 7.140625 -10.578125 6.734375 -10.578125 Z M 3.8125 -10.578125 "/></g></g></g><g fill="#ffffff" fill-opacity="1"><g transform="translate(62.308431, 19.393357)"><g><path d="M 2.0625 3.265625 L 0.453125 3.265625 L 0.453125 1.40625 L 2.046875 1.40625 C 2.378906 1.40625 2.648438 1.347656 2.859375 1.234375 C 3.078125 1.128906 3.257812 0.960938 3.40625 0.734375 C 3.5625 0.515625 3.703125 0.226562 3.828125 -0.125 L 3.9375 -0.453125 L 0.28125 -9.546875 L 2.640625 -9.546875 L 4.890625 -3.765625 L 5.140625 -2.78125 L 5.390625 -3.765625 L 7.59375 -9.546875 L 10 -9.546875 L 6.265625 -0.21875 C 5.992188 0.5 5.71875 1.082031 5.4375 1.53125 C 5.15625 1.988281 4.851562 2.34375 4.53125 2.59375 C 4.21875 2.84375 3.859375 3.015625 3.453125 3.109375 C 3.054688 3.210938 2.59375 3.265625 2.0625 3.265625 Z M 2.0625 3.265625 "/></g></g></g><g fill="#ffffff" fill-opacity="1"><g transform="translate(72.085421, 19.393357)"><g><path d="M 13.03125 -9.84375 C 14.226562 -9.84375 15.125 -9.429688 15.71875 -8.609375 C 16.3125 -7.796875 16.609375 -6.640625 16.609375 -5.140625 L 16.609375 0 L 14.390625 0 L 14.390625 -5.109375 C 14.390625 -6.046875 14.207031 -6.722656 13.84375 -7.140625 C 13.488281 -7.554688 13 -7.765625 12.375 -7.765625 C 11.976562 -7.765625 11.601562 -7.644531 11.25 -7.40625 C 10.894531 -7.164062 10.609375 -6.828125 10.390625 -6.390625 C 10.179688 -5.960938 10.078125 -5.457031 10.078125 -4.875 L 10.078125 0 L 7.859375 0 L 7.859375 -5.109375 C 7.859375 -6.046875 7.675781 -6.722656 7.3125 -7.140625 C 6.945312 -7.554688 6.457031 -7.765625 5.84375 -7.765625 C 5.4375 -7.765625 5.054688 -7.644531 4.703125 -7.40625 C 4.359375 -7.164062 4.078125 -6.828125 3.859375 -6.390625 C 3.648438 -5.960938 3.546875 -5.457031 3.546875 -4.875 L 3.546875 0 L 1.3125 0 L 1.3125 -9.546875 L 3.421875 -9.546875 L 3.453125 -8.0625 C 3.617188 -8.40625 3.847656 -8.707031 4.140625 -8.96875 C 4.441406 -9.238281 4.789062 -9.453125 5.1875 -9.609375 C 5.59375 -9.765625 6.03125 -9.84375 6.5 -9.84375 C 7.289062 -9.84375 7.953125 -9.65625 8.484375 -9.28125 C 9.015625 -8.914062 9.414062 -8.382812 9.6875 -7.6875 C 10.09375 -8.425781 10.578125 -8.96875 11.140625 -9.3125 C 11.710938 -9.664062 12.34375 -9.84375 13.03125 -9.84375 Z M 13.03125 -9.84375 "/></g></g></g><g fill="#ffffff" fill-opacity="1"><g transform="translate(89.639702, 19.393357)"><g><path d="M 10.40625 -4.9375 C 10.40625 -4.820312 10.398438 -4.710938 10.390625 -4.609375 C 10.390625 -4.503906 10.378906 -4.363281 10.359375 -4.1875 L 2.90625 -4.1875 C 2.976562 -3.664062 3.140625 -3.21875 3.390625 -2.84375 C 3.640625 -2.476562 3.953125 -2.195312 4.328125 -2 C 4.703125 -1.8125 5.109375 -1.71875 5.546875 -1.71875 C 6.117188 -1.71875 6.582031 -1.828125 6.9375 -2.046875 C 7.289062 -2.273438 7.546875 -2.59375 7.703125 -3 L 10.15625 -3 C 10.039062 -2.570312 9.847656 -2.160156 9.578125 -1.765625 C 9.304688 -1.367188 8.972656 -1.015625 8.578125 -0.703125 C 8.191406 -0.398438 7.742188 -0.160156 7.234375 0.015625 C 6.734375 0.191406 6.1875 0.28125 5.59375 0.28125 C 4.875 0.28125 4.210938 0.148438 3.609375 -0.109375 C 3.003906 -0.367188 2.476562 -0.726562 2.03125 -1.1875 C 1.59375 -1.65625 1.25 -2.195312 1 -2.8125 C 0.757812 -3.425781 0.640625 -4.082031 0.640625 -4.78125 C 0.640625 -5.476562 0.757812 -6.128906 1 -6.734375 C 1.25 -7.347656 1.59375 -7.882812 2.03125 -8.34375 C 2.476562 -8.8125 3.003906 -9.175781 3.609375 -9.4375 C 4.210938 -9.707031 4.875 -9.84375 5.59375 -9.84375 C 6.3125 -9.84375 6.96875 -9.710938 7.5625 -9.453125 C 8.15625 -9.191406 8.660156 -8.832031 9.078125 -8.375 C 9.503906 -7.914062 9.832031 -7.390625 10.0625 -6.796875 C 10.289062 -6.210938 10.40625 -5.59375 10.40625 -4.9375 Z M 3 -5.921875 L 8.109375 -5.921875 C 8.078125 -6.273438 7.941406 -6.597656 7.703125 -6.890625 C 7.472656 -7.191406 7.171875 -7.429688 6.796875 -7.609375 C 6.429688 -7.785156 6.023438 -7.875 5.578125 -7.875 C 5.203125 -7.875 4.84375 -7.804688 4.5 -7.671875 C 4.15625 -7.535156 3.847656 -7.320312 3.578125 -7.03125 C 3.316406 -6.738281 3.125 -6.367188 3 -5.921875 Z M 3 -5.921875 "/></g></g></g><g fill="#ffffff" fill-opacity="1"><g transform="translate(100.25296, 19.393357)"><g><path d="M 6.40625 0 L 1.5 0 L 1.5 -12.640625 L 6.375 -12.640625 C 7.382812 -12.640625 8.300781 -12.488281 9.125 -12.1875 C 9.945312 -11.882812 10.65625 -11.453125 11.25 -10.890625 C 11.84375 -10.335938 12.296875 -9.675781 12.609375 -8.90625 C 12.929688 -8.132812 13.09375 -7.273438 13.09375 -6.328125 C 13.09375 -5.378906 12.929688 -4.515625 12.609375 -3.734375 C 12.296875 -2.960938 11.84375 -2.296875 11.25 -1.734375 C 10.664062 -1.179688 9.960938 -0.753906 9.140625 -0.453125 C 8.316406 -0.148438 7.40625 0 6.40625 0 Z M 3.78125 -10.578125 L 3.78125 -2.0625 L 6.328125 -2.0625 C 7.253906 -2.0625 8.046875 -2.234375 8.703125 -2.578125 C 9.367188 -2.921875 9.878906 -3.40625 10.234375 -4.03125 C 10.585938 -4.664062 10.765625 -5.421875 10.765625 -6.296875 C 10.765625 -7.148438 10.585938 -7.898438 10.234375 -8.546875 C 9.890625 -9.191406 9.382812 -9.691406 8.71875 -10.046875 C 8.0625 -10.398438 7.257812 -10.578125 6.3125 -10.578125 Z M 3.78125 -10.578125 "/></g></g></g><g fill="#ffffff" fill-opacity="1"><g transform="translate(113.663069, 19.393357)"><g><path d="M 10.40625 -4.9375 C 10.40625 -4.820312 10.398438 -4.710938 10.390625 -4.609375 C 10.390625 -4.503906 10.378906 -4.363281 10.359375 -4.1875 L 2.90625 -4.1875 C 2.976562 -3.664062 3.140625 -3.21875 3.390625 -2.84375 C 3.640625 -2.476562 3.953125 -2.195312 4.328125 -2 C 4.703125 -1.8125 5.109375 -1.71875 5.546875 -1.71875 C 6.117188 -1.71875 6.582031 -1.828125 6.9375 -2.046875 C 7.289062 -2.273438 7.546875 -2.59375 7.703125 -3 L 10.15625 -3 C 10.039062 -2.570312 9.847656 -2.160156 9.578125 -1.765625 C 9.304688 -1.367188 8.972656 -1.015625 8.578125 -0.703125 C 8.191406 -0.398438 7.742188 -0.160156 7.234375 0.015625 C 6.734375 0.191406 6.1875 0.28125 5.59375 0.28125 C 4.875 0.28125 4.210938 0.148438 3.609375 -0.109375 C 3.003906 -0.367188 2.476562 -0.726562 2.03125 -1.1875 C 1.59375 -1.65625 1.25 -2.195312 1 -2.8125 C 0.757812 -3.425781 0.640625 -4.082031 0.640625 -4.78125 C 0.640625 -5.476562 0.757812 -6.128906 1 -6.734375 C 1.25 -7.347656 1.59375 -7.882812 2.03125 -8.34375 C 2.476562 -8.8125 3.003906 -9.175781 3.609375 -9.4375 C 4.210938 -9.707031 4.875 -9.84375 5.59375 -9.84375 C 6.3125 -9.84375 6.96875 -9.710938 7.5625 -9.453125 C 8.15625 -9.191406 8.660156 -8.832031 9.078125 -8.375 C 9.503906 -7.914062 9.832031 -7.390625 10.0625 -6.796875 C 10.289062 -6.210938 10.40625 -5.59375 10.40625 -4.9375 Z M 3 -5.921875 L 8.109375 -5.921875 C 8.078125 -6.273438 7.941406 -6.597656 7.703125 -6.890625 C 7.472656 -7.191406 7.171875 -7.429688 6.796875 -7.609375 C 6.429688 -7.785156 6.023438 -7.875 5.578125 -7.875 C 5.203125 -7.875 4.84375 -7.804688 4.5 -7.671875 C 4.15625 -7.535156 3.847656 -7.320312 3.578125 -7.03125 C 3.316406 -6.738281 3.125 -6.367188 3 -5.921875 Z M 3 -5.921875 "/></g></g></g><g fill="#ffffff" fill-opacity="1"><g transform="translate(124.276327, 19.393357)"><g><path d="M 6 0 L 3.90625 0 L 0.09375 -9.546875 L 2.484375 -9.546875 L 4.703125 -3.78125 L 4.953125 -2.78125 L 5.1875 -3.765625 L 7.421875 -9.546875 L 9.828125 -9.546875 Z M 6 0 "/></g></g></g><g transform="matrix(1, 0, 0, 1, 30, 3)"><g clip-path="url(#39ce4e3208)"><g clip-path="url(#6d1bafce91)"><g fill="#ffffff" fill-opacity="1"><g transform="translate(0.999992, 17.3682)"><g><path d="M 5.96875 -12.65625 L 1.296875 0 L -0.3125 0 L 4.34375 -12.65625 Z M 5.96875 -12.65625 "/></g></g></g></g></g></g></svg>